# xmcd
#
# Track frame offsets: 
#        150
#        37940
#        56780
#        78987
#        97492
#
# Disc length: 1529 seconds
#
# Revision: 2
# Processed by: cddbd v1.4PL0 Copyright (c) Steve Scherf et al.
# Submitted via: ExactAudioCopy v0.90b4
#
DISCID=3d05f705
DTITLE=Michael Jackson - Bad
DYEAR=1987
DGENRE=Pop
TTITLE0=Bad ( Dance Extended Mix Includes ''False Fade'' ) 
TTITLE1=Bad ( 7'' Single Mix )
TTITLE2=Bad ( Dance Remix Radio Edit )
TTITLE3=Bad ( Dub Version )
TTITLE4=Bad ( A Capella )
EXTD=
EXTT0=
EXTT1=
EXTT2=
EXTT3=
EXTT4=
PLAYORDER=
